<svg xmlns="http://www.w3.org/2000/svg" viewBox="0 0 159 56" width="159" height="56" role="img" aria-label="OCDH">
  <title>OCDH</title>
  <path d="M20.51 44.52L20.51 44.52Q15.73 44.52 12.19 42.96Q8.66 41.4 6.68 38.25Q4.7 35.11 4.5 30.38L4.5 30.38Q4.44 28.14 4.44 25.88Q4.44 23.62 4.5 21.38L4.5 21.38Q4.7 16.7 6.71 13.5Q8.71 10.3 12.27 8.69Q15.83 7.08 20.51 7.08L20.51 7.08Q25.24 7.08 28.78 8.69Q32.32 10.3 34.34 13.5Q36.37 16.7 36.53 21.38L36.53 21.38Q36.63 23.62 36.63 25.88Q36.63 28.14 36.53 30.38L36.53 30.38Q36.37 35.11 34.37 38.25Q32.37 41.4 28.83 42.96Q25.3 44.52 20.51 44.52M20.51 37.03L20.51 37.03Q23.27 37.03 25.01 35.37Q26.75 33.7 26.86 30.06L26.86 30.06Q26.96 27.78 26.96 25.75Q26.96 23.72 26.86 21.54L26.86 21.54Q26.75 19.09 25.95 17.56Q25.14 16.02 23.74 15.3Q22.33 14.57 20.51 14.57L20.51 14.57Q18.74 14.57 17.34 15.3Q15.94 16.02 15.1 17.56Q14.27 19.09 14.17 21.54L14.17 21.54Q14.12 23.72 14.12 25.75Q14.12 27.78 14.17 30.06L14.17 30.06Q14.32 33.7 16.07 35.37Q17.81 37.03 20.51 37.03 M58.63 44.52L58.63 44.52Q53.74 44.52 50.2 42.91Q46.67 41.3 44.72 38.18Q42.77 35.06 42.56 30.43L42.56 30.43Q42.51 28.3 42.51 25.85Q42.51 23.41 42.56 21.17L42.56 21.17Q42.77 16.65 44.74 13.48Q46.72 10.3 50.26 8.69Q53.79 7.08 58.63 7.08L58.63 7.08Q62.06 7.08 64.97 7.94Q67.88 8.8 70.07 10.43Q72.25 12.07 73.47 14.39Q74.7 16.7 74.75 19.61L74.75 19.61Q74.8 20.08 74.46 20.39Q74.12 20.7 73.66 20.7L73.66 20.7L66.64 20.7Q65.96 20.7 65.6 20.42Q65.23 20.13 64.97 19.35L64.97 19.35Q64.24 16.6 62.61 15.58Q60.97 14.57 58.58 14.57L58.58 14.57Q55.72 14.57 54.05 16.15Q52.39 17.74 52.23 21.43L52.23 21.43Q52.08 25.7 52.23 30.17L52.23 30.17Q52.39 33.86 54.05 35.45Q55.72 37.03 58.58 37.03L58.58 37.03Q60.97 37.03 62.63 35.99Q64.3 34.95 64.97 32.25L64.97 32.25Q65.18 31.47 65.57 31.18Q65.96 30.9 66.64 30.9L66.64 30.9L73.66 30.9Q74.12 30.9 74.46 31.21Q74.8 31.52 74.75 31.99L74.75 31.99Q74.7 34.9 73.47 37.21Q72.25 39.53 70.07 41.17Q67.88 42.8 64.97 43.66Q62.06 44.52 58.63 44.52 M96.33 44L82.55 44Q81.98 44 81.61 43.61Q81.25 43.22 81.25 42.7L81.25 42.7L81.25 8.9Q81.25 8.33 81.61 7.96Q81.98 7.6 82.55 7.6L82.55 7.6L96.07 7.6Q101.16 7.6 104.75 9.24Q108.34 10.88 110.26 14.02Q112.19 17.17 112.34 21.8L112.34 21.8Q112.4 24.08 112.4 25.8Q112.4 27.52 112.34 29.75L112.34 29.75Q112.14 34.59 110.29 37.76Q108.44 40.93 104.93 42.47Q101.42 44 96.33 44L96.33 44M90.61 15.09L90.61 36.51L96.07 36.51Q98.3 36.51 99.79 35.81Q101.27 35.11 102.02 33.6Q102.78 32.09 102.83 29.65L102.83 29.65Q102.93 28.14 102.96 26.94Q102.98 25.75 102.96 24.55Q102.93 23.36 102.83 21.9L102.83 21.9Q102.72 18.36 100.98 16.73Q99.24 15.09 95.81 15.09L95.81 15.09L90.61 15.09 M127.53 44L120.82 44Q120.25 44 119.88 43.64Q119.52 43.27 119.52 42.7L119.52 42.7L119.52 8.9Q119.52 8.33 119.88 7.96Q120.25 7.6 120.82 7.6L120.82 7.6L127.53 7.6Q128.1 7.6 128.49 7.96Q128.88 8.33 128.88 8.9L128.88 8.9L128.88 21.43L141.67 21.43L141.67 8.9Q141.67 8.33 142.04 7.96Q142.4 7.6 142.97 7.6L142.97 7.6L149.68 7.6Q150.25 7.6 150.62 7.96Q150.98 8.33 150.98 8.9L150.98 8.9L150.98 42.7Q150.98 43.22 150.62 43.61Q150.25 44 149.68 44L149.68 44L142.97 44Q142.4 44 142.04 43.61Q141.67 43.22 141.67 42.7L141.67 42.7L141.67 29.75L128.88 29.75L128.88 42.7Q128.88 43.22 128.49 43.61Q128.1 44 127.53 44L127.53 44" fill="#FFFFFF"/>
</svg>
