<svg xmlns="http://www.w3.org/2000/svg" viewBox="0 0 242 62" width="242" height="62" role="img" aria-label="One Click">
  <title>One Click</title>
  <path d="M20.51 43L20.51 43Q15.73 43 12.19 41.44Q8.66 39.88 6.68 36.73Q4.7 33.59 4.5 28.86L4.5 28.86Q4.44 26.62 4.44 24.36Q4.44 22.1 4.5 19.86L4.5 19.86Q4.7 15.18 6.71 11.98Q8.71 8.78 12.27 7.17Q15.83 5.56 20.51 5.56L20.51 5.56Q25.24 5.56 28.78 7.17Q32.32 8.78 34.34 11.98Q36.37 15.18 36.53 19.86L36.53 19.86Q36.63 22.1 36.63 24.36Q36.63 26.62 36.53 28.86L36.53 28.86Q36.37 33.59 34.37 36.73Q32.37 39.88 28.83 41.44Q25.3 43 20.51 43M20.51 35.51L20.51 35.51Q23.27 35.51 25.01 33.85Q26.75 32.18 26.86 28.54L26.86 28.54Q26.96 26.26 26.96 24.23Q26.96 22.2 26.86 20.02L26.86 20.02Q26.75 17.57 25.95 16.04Q25.14 14.5 23.74 13.78Q22.33 13.05 20.51 13.05L20.51 13.05Q18.74 13.05 17.34 13.78Q15.94 14.5 15.1 16.04Q14.27 17.57 14.17 20.02L14.17 20.02Q14.12 22.2 14.12 24.23Q14.12 26.26 14.17 28.54L14.17 28.54Q14.32 32.18 16.07 33.85Q17.81 35.51 20.51 35.51 M49.37 42.48L42.87 42.48Q42.3 42.48 41.94 42.09Q41.57 41.7 41.57 41.18L41.57 41.18L41.57 16.74Q41.57 16.17 41.94 15.8Q42.3 15.44 42.87 15.44L42.87 15.44L48.85 15.44Q49.42 15.44 49.81 15.8Q50.2 16.17 50.2 16.74L50.2 16.74L50.2 18.72Q51.5 17.1 53.69 16.01Q55.87 14.92 58.84 14.92L58.84 14.92Q61.85 14.92 64.17 16.27Q66.48 17.62 67.81 20.22Q69.13 22.82 69.13 26.67L69.13 26.67L69.13 41.18Q69.13 41.7 68.77 42.09Q68.4 42.48 67.83 42.48L67.83 42.48L61.28 42.48Q60.76 42.48 60.37 42.09Q59.98 41.7 59.98 41.18L59.98 41.18L59.98 26.98Q59.98 24.54 58.81 23.21Q57.64 21.89 55.35 21.89L55.35 21.89Q53.22 21.89 51.95 23.21Q50.67 24.54 50.67 26.98L50.67 26.98L50.67 41.18Q50.67 41.7 50.28 42.09Q49.89 42.48 49.37 42.48L49.37 42.48 M86.97 43L86.97 43Q80.83 43 77.19 39.67Q73.55 36.34 73.4 29.79L73.4 29.79L73.4 27.97Q73.55 23.86 75.24 20.93Q76.93 17.99 79.92 16.45Q82.91 14.92 86.92 14.92L86.92 14.92Q91.49 14.92 94.48 16.74Q97.47 18.56 98.98 21.68Q100.49 24.8 100.49 28.8L100.49 28.8L100.49 30.05Q100.49 30.62 100.12 30.99Q99.76 31.35 99.19 31.35L99.19 31.35L82.55 31.35L82.55 31.72Q82.6 33.22 83.09 34.47Q83.59 35.72 84.55 36.45Q85.51 37.18 86.92 37.18L86.92 37.18Q87.96 37.18 88.66 36.84Q89.36 36.5 89.83 36.06Q90.3 35.62 90.56 35.3L90.56 35.3Q91.02 34.73 91.31 34.6Q91.6 34.47 92.22 34.47L92.22 34.47L98.67 34.47Q99.19 34.47 99.53 34.78Q99.86 35.1 99.81 35.62L99.81 35.62Q99.76 36.5 98.93 37.75Q98.1 39 96.51 40.22Q94.92 41.44 92.53 42.22Q90.14 43 86.97 43M82.55 26.1L82.55 26.2L91.34 26.2L91.34 26.1Q91.34 24.38 90.84 23.16Q90.35 21.94 89.33 21.26Q88.32 20.59 86.92 20.59L86.92 20.59Q85.56 20.59 84.58 21.26Q83.59 21.94 83.07 23.16Q82.55 24.38 82.55 26.1L82.55 26.1  M130.91 43L130.91 43Q126.02 43 122.48 41.39Q118.95 39.78 117 36.66Q115.05 33.54 114.84 28.91L114.84 28.91Q114.79 26.78 114.79 24.33Q114.79 21.89 114.84 19.65L114.84 19.65Q115.05 15.13 117.02 11.96Q119 8.78 122.54 7.17Q126.07 5.56 130.91 5.56L130.91 5.56Q134.34 5.56 137.25 6.42Q140.16 7.28 142.35 8.91Q144.53 10.55 145.75 12.87Q146.98 15.18 147.03 18.09L147.03 18.09Q147.08 18.56 146.74 18.87Q146.4 19.18 145.94 19.18L145.94 19.18L138.92 19.18Q138.24 19.18 137.88 18.9Q137.51 18.61 137.25 17.83L137.25 17.83Q136.52 15.08 134.89 14.06Q133.25 13.05 130.86 13.05L130.86 13.05Q128 13.05 126.33 14.63Q124.67 16.22 124.51 19.91L124.51 19.91Q124.36 24.18 124.51 28.65L124.51 28.65Q124.67 32.34 126.33 33.93Q128 35.51 130.86 35.51L130.86 35.51Q133.25 35.51 134.91 34.47Q136.58 33.43 137.25 30.73L137.25 30.73Q137.46 29.95 137.85 29.66Q138.24 29.38 138.92 29.38L138.92 29.38L145.94 29.38Q146.4 29.38 146.74 29.69Q147.08 30 147.03 30.47L147.03 30.47Q146.98 33.38 145.75 35.69Q144.53 38.01 142.35 39.65Q140.16 41.28 137.25 42.14Q134.34 43 130.91 43 M158.83 42.48L152.7 42.48Q152.12 42.48 151.76 42.09Q151.4 41.7 151.4 41.18L151.4 41.18L151.4 6.86Q151.4 6.29 151.76 5.92Q152.12 5.56 152.7 5.56L152.7 5.56L158.83 5.56Q159.4 5.56 159.77 5.92Q160.13 6.29 160.13 6.86L160.13 6.86L160.13 41.18Q160.13 41.7 159.77 42.09Q159.4 42.48 158.83 42.48L158.83 42.48 M173.18 42.48L167.05 42.48Q166.48 42.48 166.11 42.09Q165.75 41.7 165.75 41.18L165.75 41.18L165.75 16.74Q165.75 16.17 166.11 15.8Q166.48 15.44 167.05 15.44L167.05 15.44L173.18 15.44Q173.76 15.44 174.12 15.8Q174.48 16.17 174.48 16.74L174.48 16.74L174.48 41.18Q174.48 41.7 174.12 42.09Q173.76 42.48 173.18 42.48L173.18 42.48M173.24 11.54L167 11.54Q166.42 11.54 166.06 11.18Q165.7 10.81 165.7 10.24L165.7 10.24L165.7 5.56Q165.7 5.04 166.06 4.65Q166.42 4.26 167 4.26L167 4.26L173.24 4.26Q173.76 4.26 174.15 4.65Q174.54 5.04 174.54 5.56L174.54 5.56L174.54 10.24Q174.54 10.81 174.15 11.18Q173.76 11.54 173.24 11.54L173.24 11.54 M192.53 43L192.53 43Q188.68 43 185.72 41.6Q182.75 40.19 181.01 37.51Q179.27 34.84 179.11 31.09L179.11 31.09Q179.06 30.26 179.06 28.99Q179.06 27.71 179.11 26.88L179.11 26.88Q179.27 23.08 180.98 20.41Q182.7 17.73 185.69 16.32Q188.68 14.92 192.53 14.92L192.53 14.92Q196.12 14.92 198.69 15.93Q201.26 16.95 202.85 18.46Q204.44 19.96 205.24 21.55Q206.05 23.14 206.1 24.33L206.1 24.33Q206.15 24.85 205.74 25.24Q205.32 25.63 204.8 25.63L204.8 25.63L198.2 25.63Q197.62 25.63 197.31 25.37Q197 25.11 196.74 24.59L196.74 24.59Q196.12 22.98 195.15 22.3Q194.19 21.63 192.68 21.63L192.68 21.63Q190.6 21.63 189.49 22.98Q188.37 24.33 188.26 27.14L188.26 27.14Q188.21 29.22 188.26 30.83L188.26 30.83Q188.42 33.69 189.51 34.99Q190.6 36.29 192.68 36.29L192.68 36.29Q194.3 36.29 195.23 35.59Q196.17 34.89 196.74 33.33L196.74 33.33Q197 32.81 197.31 32.55Q197.62 32.29 198.2 32.29L198.2 32.29L204.8 32.29Q205.32 32.29 205.74 32.65Q206.15 33.02 206.1 33.59L206.1 33.59Q206.05 34.42 205.58 35.62Q205.11 36.81 204.12 38.11Q203.14 39.41 201.55 40.5Q199.96 41.6 197.73 42.3Q195.49 43 192.53 43 M217.59 42.48L211.56 42.48Q210.99 42.48 210.62 42.09Q210.26 41.7 210.26 41.18L210.26 41.18L210.26 6.86Q210.26 6.29 210.62 5.92Q210.99 5.56 211.56 5.56L211.56 5.56L217.59 5.56Q218.11 5.56 218.5 5.92Q218.89 6.29 218.89 6.86L218.89 6.86L218.89 24.28L226.12 16.32Q226.43 15.96 226.8 15.7Q227.16 15.44 227.84 15.44L227.84 15.44L234.8 15.44Q235.27 15.44 235.61 15.78Q235.95 16.12 235.95 16.58L235.95 16.58Q235.95 16.79 235.87 17.05Q235.79 17.31 235.53 17.47L235.53 17.47L226.17 27.56L236.83 40.5Q237.25 40.92 237.25 41.28L237.25 41.28Q237.25 41.8 236.91 42.14Q236.57 42.48 236.05 42.48L236.05 42.48L228.93 42.48Q228.15 42.48 227.78 42.19Q227.42 41.91 227.11 41.6L227.11 41.6L218.89 31.72L218.89 41.18Q218.89 41.7 218.5 42.09Q218.11 42.48 217.59 42.48L217.59 42.48" fill="#FFFFFF"/>
</svg>
